<svg id="Capa_1" data-name="Capa 1" xmlns="http://www.w3.org/2000/svg" viewBox="0 0 256.4 256.4"><rect x="119.6" y="33.75" width="17.21" height="189.06"/><rect x="119.6" width="17.21" height="17.21"/><rect x="119.6" y="239.19" width="17.21" height="17.21"/><rect x="239.19" y="119.6" width="17.21" height="17.21" transform="translate(376 -119.6) rotate(90)"/><rect y="119.6" width="17.21" height="17.21" transform="translate(136.81 119.6) rotate(90)"/><rect x="119.6" y="33.75" width="17.21" height="189.06" transform="translate(256.48 0.08) rotate(90)"/><rect x="102.18" y="102.27" width="52.03" height="52.03"/><rect x="84.96" y="85.04" width="17.22" height="17.22"/><rect x="67.76" y="67.84" width="17.22" height="17.22"/><rect x="50.56" y="50.64" width="17.22" height="17.22"/><rect x="33.36" y="33.44" width="17.22" height="17.22"/><rect x="205.74" y="205.82" width="17.22" height="17.22"/><rect x="188.54" y="188.62" width="17.22" height="17.22"/><rect x="171.34" y="171.42" width="17.22" height="17.22"/><rect x="154.14" y="154.22" width="17.22" height="17.22"/><rect x="154.14" y="85.04" width="17.22" height="17.22" transform="translate(256.41 -69.1) rotate(90)"/><rect x="171.34" y="67.84" width="17.22" height="17.22" transform="translate(256.41 -103.5) rotate(90)"/><rect x="188.54" y="50.64" width="17.22" height="17.22" transform="translate(256.41 -137.9) rotate(90)"/><rect x="205.74" y="33.44" width="17.22" height="17.22" transform="translate(256.41 -172.3) rotate(90)"/><rect x="33.36" y="205.82" width="17.22" height="17.22" transform="translate(256.41 172.46) rotate(90)"/><rect x="50.56" y="188.62" width="17.22" height="17.22" transform="translate(256.41 138.06) rotate(90)"/><rect x="67.76" y="171.42" width="17.22" height="17.22" transform="translate(256.41 103.66) rotate(90)"/><rect x="84.96" y="154.22" width="17.22" height="17.22" transform="translate(256.41 69.26) rotate(90)"/></svg>