<svg id="Capa_1" data-name="Capa 1" xmlns="http://www.w3.org/2000/svg" viewBox="0 0 235.68 235.2"><path d="M194.63,235.2V222H171.19V205.88H152.66V187.51H137.19v-19.1H122.53V146.9h-9.38v21.51H98.48v19.1H83v18.37H64.49V222H41V235.2H0V194H12.81V172.08H29V153.39H47.29V137.52H66.63v-15h20v-9.72h-20V97.36H47.29V81.16H29V63.76H12.81V40.88H0V0H43.78V12.33H64.49V28.76H83V46.65H98.48V66h14.67V86.77h9.38V66h14.66V46.65h15.47V28.76h18.53V12.33h20.7V0h43.79V40.88H222.87V63.76h-16.2v17.4H188.39v16.2H169.05v15.46h-20v9.72h20v15h19.34v15.87h18.28v18.69h16.2V194h12.81v41.2ZM190,216.39h26.87v-25.5H204.06V172.2H187.87V156.33H169.58v-15H150.24V126.6h-20V107.79h20V94h19.34V78.55h18.29V62.36h16.19V45h12.81V18.81H190V31.13H171.47V47.57H156V65.45H141.34V84.79H127v20.78H108.19V84.79H94.34V65.45H79.68V47.57H64.21V31.13H45.68V18.81H18.81V45H31.62V62.36H47.81V78.55H66.1V94H85.43v13.77h20V126.6h-20v14.74H66.1v15H47.81V172.2H31.62v18.69H18.81v25.5H45.68V203.18H64.21V187.07H79.68V168.7H94.34V149.61h13.85V128.1H127v21.51h14.34V168.7H156v18.37h15.47v16.11H190Z"/></svg>