<svg id="Capa_1" data-name="Capa 1" xmlns="http://www.w3.org/2000/svg" viewBox="0 0 204.3 257.04"><rect x="27.8" y="108.38" width="13.98" height="40.53"/><rect x="13.28" y="108.38" width="13.98" height="40.53" transform="translate(148.91 108.38) rotate(90)"/><rect x="34.52" y="101.48" width="13.98" height="27.42" transform="translate(156.69 73.68) rotate(90)"/><rect x="155.39" y="101.48" width="13.98" height="27.42" transform="translate(277.56 -47.19) rotate(90)"/><rect x="34.52" y="128.59" width="13.98" height="27.42" transform="translate(183.81 100.8) rotate(90)"/><rect x="155.75" y="128.59" width="13.98" height="27.42" transform="translate(305.04 -20.44) rotate(90)"/><rect x="95.1" width="13.98" height="40.53"/><rect x="81.24" y="27.23" width="13.98" height="40.53"/><rect x="108.96" y="27.23" width="13.98" height="40.53"/><rect x="67.26" y="67.73" width="13.98" height="40.53"/><rect x="122.7" y="67.73" width="13.98" height="40.53"/><rect x="61.16" y="88.17" width="13.98" height="26.19" transform="translate(169.41 33.12) rotate(90)"/><rect x="128.8" y="88.17" width="13.98" height="26.19" transform="translate(237.06 -34.53) rotate(90)"/><rect x="94.86" y="216.51" width="13.98" height="40.53" transform="translate(203.7 473.56) rotate(180)"/><rect x="108.72" y="189.28" width="13.98" height="40.53" transform="translate(231.42 419.09) rotate(180)"/><rect x="81" y="189.28" width="13.98" height="40.53" transform="translate(175.98 419.09) rotate(180)"/><rect x="122.7" y="149.27" width="13.98" height="40.53" transform="translate(259.37 339.06) rotate(180)"/><rect x="67.26" y="149.27" width="13.98" height="40.53" transform="translate(148.51 339.06) rotate(180)"/><rect x="128.8" y="143.16" width="13.98" height="26.19" transform="translate(-20.46 292.05) rotate(-90)"/><rect x="61.16" y="143.16" width="13.98" height="26.19" transform="translate(-88.11 224.4) rotate(-90)"/><rect x="177.05" y="108.38" width="13.98" height="40.53" transform="translate(312.68 -55.39) rotate(90)"/><rect x="162.16" y="108.38" width="13.98" height="40.53"/></svg>