<svg id="Capa_1" data-name="Capa 1" xmlns="http://www.w3.org/2000/svg" viewBox="0 0 254.38 253.08"><path d="M72.54,60.18c0,4,0,8,0,12-4,0-8,0-12,0,0-4.11,0-8.24,0-12.36Z"/><path d="M181.84,60.18c1.29,0,2.49-.35,3.73-.35,2.68,0,5.6.43,8.31.35,0,4,0,8,0,12-4,0-8,0-12,0C181.84,68.21,181.82,64.19,181.84,60.18Z"/><path d="M72.54,180.86c0,4,0,8,0,12-4,0-8,0-12,0,0-4,0-8,0-12C64.51,180.85,68.53,180.87,72.54,180.86Z"/><path d="M193.87,180.86c0,4,0,8,0,12-4,0-8,0-12,0,0-4,0-8,0-12C185.84,180.87,189.87,180.85,193.87,180.86Z"/><path d="M109,72.21c.06-16.15,0-32.31,0-48.46h12V72.22c-4,0-8,0-12,0,0,4,0,8,0,12H96.61c0-4,0-8,0-12q-12,0-24.07,0c0-4,0-8,0-12H96.61c0,4,0,8,0,12C100.73,72.21,104.86,72.23,109,72.21Z"/><path d="M72.54,60.18l-12-.33c0,4.12,0,8.25,0,12.36-4.11,0-8.24,0-12.36,0V48.14H72.05c.07,0,.37-.48.49-.32C72.55,51.93,72.53,56.06,72.54,60.18Z"/><path d="M72.54,72.21c0,8,0,16.06,0,24.08,4.11,0,8.27-.16,12.37.16l-.33,12-10.92-.18-1.12.5v11.55H24.4V109.14c0-.1-.41-.25-.33-.49H72.54c0-4.12,0-8.25,0-12.36-4,0-8,0-12,0,0-8,0-16.06,0-24.08C64.51,72.23,68.53,72.21,72.54,72.21Z"/><path d="M145.41,72.21c-4,0-8,0-12,0l-.49-48.47H121.33V.49c0-.1-.41-.25-.32-.49h12.36L133,23.75h12.37c0,16.15-.07,32.31,0,48.46,4.11,0,8.24,0,12.36,0,0-4,0-8,0-12,8,0,16.06,0,24.08,0,0,4,0,8,0,12-8,0-16.06,0-24.07,0,0,4,0,8,0,12H145.41C145.39,80.24,145.42,76.22,145.41,72.21Z"/><path d="M181.84,60.18c0-4,0-8,0-12h23.58c.1,0,.25-.41.49-.32V72.21c-4,0-8,0-12,0,0-4,0-8,0-12-2.71.08-5.63-.36-8.31-.35C184.33,59.83,183.13,60.17,181.84,60.18Z"/><path d="M193.87,72.21c0,8,0,16.06,0,24.08-4,0-8,0-12,0,0,4.11,0,8.24,0,12.36H230c0,3.9,0,7.81,0,11.71,8.13,0,16.27,0,24.4,0v12q-12.19,0-24.4,0c0,.48.33,1.11.34,1.78.07,3.41-.08,6.85,0,10.26-16.15,0-32.32-.06-48.47,0,0,4,0,8,0,12H169.48v-12c4.11,0,8.24,0,12.36,0,0-4,0-8,0-12,16,0,32.1,0,48.14,0-.07-4,0-8,0-12-16,0-32.1,0-48.14,0V108.81c-.29-.46-.65-.45-1.12-.5-3.38-.4-7.75.4-11.24,0v-12c4.11,0,8.24,0,12.36,0,0-8,0-16.06,0-24.08C185.84,72.21,189.87,72.23,193.87,72.21Z"/><path d="M60.5,180.86c0-8.07,0-16.15,0-24.23.06-.46.42.16.49.16H72.54v24.07C68.53,180.87,64.51,180.85,60.5,180.86Z"/><path d="M96.61,180.86c0-4,0-8,0-12H109c0,4,0,8,0,12,4.12,0,8.25,0,12.36,0L121,229H109c0-16,.06-32.11,0-48.15-4.11,0-8.24,0-12.36,0,0,4,0,8,0,12-8,0-16,0-24.07,0,0-4,0-8,0-12Q84.57,180.84,96.61,180.86Z"/><path d="M60.5,180.86c0,4,0,8,0,12,4,0,8,0,12,0,0,4,0,8,0,12H48.14V180.86C52.26,180.85,56.39,180.88,60.5,180.86Z"/><path d="M181.84,180.86q0-12,0-24.07H194.2a3.26,3.26,0,0,0-.35,1.45c-.18,7.52.05,15.1,0,22.62C189.87,180.85,185.84,180.87,181.84,180.86Z"/><path d="M145.41,180.86c0-4,0-8,0-12h12.36c0,4,0,8,0,12,8,0,16,0,24.07,0,0,4,0,8,0,12-8,0-16.06,0-24.08,0,0-4,0-8,0-12-4.12,0-8.25,0-12.36,0-.07,16,0,32.1,0,48.15H133l.33,24.07H121c-.09-.24.32-.39.32-.49V229h11.55l.16-48.14C137.16,180.85,141.29,180.87,145.41,180.86Z"/><path d="M193.87,180.86c4,0,8,0,12,0v24.07H181.84c0-4,0-8,0-12,4,0,8,0,12,0C193.88,188.89,193.86,184.87,193.87,180.86Z"/><path d="M72.54,144.43c-16.1-.05-32.2,0-48.3,0-.46-.05.16-.41.16-.49V132.39H0v-12H24.07l0,11.21.57.77,47.92,0c0,4,0,8,0,12,4.11,0,8.24,0,12.36,0-.59,2-.08,4-.08,5.93s-.58,4.13.08,6.11H72.54C72.53,152.46,72.55,148.44,72.54,144.43Z"/><rect x="36.11" y="205.26" width="12.04" height="12.04"/><rect x="206.23" y="205.26" width="12.04" height="12.04"/><rect x="206.23" y="35.78" width="12.04" height="12.04"/><rect x="36.11" y="35.78" width="12.04" height="12.04"/></svg>