<svg id="Capa_1" data-name="Capa 1" xmlns="http://www.w3.org/2000/svg" viewBox="0 0 238.49 237.07"><rect x="104.3" width="14.95" height="14.95"/><rect x="74.2" y="44.38" width="14.95" height="14.95"/><rect x="44.98" y="74" width="14.95" height="14.95"/><rect x="14.94" y="88.75" width="29.84" height="14.95"/><rect x="89.2" y="14.68" width="14.95" height="29.83"/><rect x="29.96" y="44.48" width="14.95" height="29.83"/><rect y="103.59" width="14.95" height="29.83"/><rect x="29.96" y="30.03" width="44.44" height="14.48"/><rect x="104.3" y="222.12" width="14.95" height="14.95"/><rect x="74.2" y="177.74" width="14.95" height="14.95"/><rect x="44.98" y="148.12" width="14.95" height="14.95"/><rect x="14.94" y="133.37" width="29.84" height="14.95"/><rect x="89.2" y="192.56" width="14.95" height="29.83"/><rect x="29.96" y="162.76" width="14.95" height="29.83"/><rect x="29.96" y="192.56" width="44.44" height="14.48"/><rect x="119.24" width="14.95" height="14.95" transform="translate(253.42 14.95) rotate(-180)"/><rect x="149.34" y="44.38" width="14.95" height="14.95" transform="translate(313.64 103.71) rotate(-180)"/><rect x="178.56" y="74" width="14.95" height="14.95" transform="translate(372.08 162.96) rotate(-180)"/><rect x="193.71" y="88.75" width="29.84" height="14.95" transform="translate(417.26 192.44) rotate(-180)"/><rect x="134.34" y="14.68" width="14.95" height="29.83" transform="translate(283.63 59.18) rotate(-180)"/><rect x="193.59" y="44.48" width="14.95" height="29.83" transform="translate(402.12 118.79) rotate(-180)"/><rect x="223.54" y="103.59" width="14.95" height="29.83" transform="translate(462.03 237.01) rotate(-180)"/><rect x="164.1" y="30.03" width="44.44" height="14.48" transform="translate(372.63 74.53) rotate(-180)"/><rect x="119.24" y="222.12" width="14.95" height="14.95" transform="translate(253.42 459.19) rotate(-180)"/><rect x="149.34" y="177.74" width="14.95" height="14.95" transform="translate(313.64 370.42) rotate(-180)"/><rect x="178.56" y="148.12" width="14.95" height="14.95" transform="translate(372.08 311.18) rotate(-180)"/><rect x="193.71" y="133.37" width="29.84" height="14.95" transform="translate(417.26 281.69) rotate(-180)"/><rect x="134.34" y="192.56" width="14.95" height="29.83" transform="translate(283.63 414.96) rotate(-180)"/><rect x="193.59" y="162.76" width="14.95" height="29.83" transform="translate(402.12 355.35) rotate(-180)"/><rect x="164.1" y="192.56" width="44.44" height="14.48" transform="translate(372.63 399.61) rotate(-180)"/><rect x="88.96" y="133.29" width="15.13" height="15.13"/><rect x="133.6" y="133.29" width="15.13" height="15.13"/><rect x="88.96" y="88.64" width="15.13" height="15.13"/><rect x="133.6" y="88.64" width="15.13" height="15.13"/><rect x="104.09" y="74.26" width="29.52" height="14.38"/><rect x="104.09" y="148.42" width="29.52" height="14.38"/><rect x="74.58" y="103.77" width="14.38" height="29.52"/><rect x="148.74" y="103.77" width="14.38" height="29.52"/></svg>