<svg id="Capa_1" data-name="Capa 1" xmlns="http://www.w3.org/2000/svg" viewBox="0 0 153.4 152.62"><path d="M138.89,72.58V65.21H109.66c0-2.38,0-4.77,0-7.15h0V56.62c0,.48,0,1,0,1.44h7.26c0-4.84,0-9.69,0-14.52,2.42,0,4.85,0,7.26,0V28.84c-.14-.06-.23.19-.29.19H109.66c0,2.42,0,4.84,0,7.26-4.84,0-9.69,0-14.52,0,0,2.41,0,4.83,0,7.23H87.69V14.33H80.23L80.43,0H73c0,.14.2.23.2.29v14H65.7V43.52H58.26c0-2.4,0-4.82,0-7.23H43.74c0-2.48,0-5,0-7.45-.07-.1-.25.19-.29.19H29V43.55c2.48,0,5,0,7.46,0,0,4.83,0,9.68,0,14.52,2.41,0,4.84,0,7.25,0,0,2.38,0,4.77,0,7.15H14.46v7.37H0v7.26H14.46v7.37H43.74c0,2.38,0,4.76,0,7.15h0l0,.19H36.49c0,4.87,0,9.65,0,14.52-2.48,0-5,0-7.46,0v14.51H43.74c0-2.41,0-4.84,0-7.25,4.84,0,9.69,0,14.52,0,0-2.42,0-4.85,0-7.26h-.12l.12,0v0H65.7v29h7.47v14.22c0,.06-.25.15-.2.3h7.46l-.2-14.52h7.46v-29h7.45v0l.09,0h-.09c0,2.41,0,4.84,0,7.26,4.83,0,9.68,0,14.52,0,0,2.41,0,4.84,0,7.25h14.51V109.07c-2.41,0-4.84,0-7.26,0,0-4.54-.12-9.11,0-13.65a2,2,0,0,1,.21-.87h-7.43l0-.19h0c0-2.39,0-4.77,0-7.15h29.23V83.63c0-.87,0-1.75,0-2.63V79.84c4.84,0,9.68,0,14.51,0V72.58C148.57,72.58,143.73,72.59,138.89,72.58Zm-29.24-29h0c0,.85,0,1.69,0,2.54Z"/><rect x="21.77" y="123.78" width="7.26" height="7.26"/><rect x="124.37" y="123.78" width="7.26" height="7.26"/><rect x="124.37" y="21.58" width="7.26" height="7.26"/><rect x="21.77" y="21.58" width="7.26" height="7.26"/></svg>