<svg id="Capa_1" data-name="Capa 1" xmlns="http://www.w3.org/2000/svg" viewBox="0 0 128.69 128.69"><rect width="17.37" height="17.37"/><rect x="8.29" y="8.29" width="17.37" height="17.37"/><rect x="16.58" y="16.58" width="17.37" height="17.37"/><rect x="24.87" y="24.87" width="17.37" height="17.37"/><rect x="33.16" y="33.16" width="17.37" height="17.37"/><rect x="41.45" y="41.45" width="17.37" height="17.37"/><rect x="60.83" y="60.59" width="8.48" height="8.48"/><rect x="69.88" y="69.88" width="17.37" height="17.37"/><rect x="78.17" y="78.17" width="17.37" height="17.37"/><rect x="86.46" y="86.46" width="17.37" height="17.37"/><rect x="94.75" y="94.75" width="17.37" height="17.37"/><rect x="103.04" y="103.04" width="17.37" height="17.37"/><rect x="111.33" y="111.33" width="17.37" height="17.37"/><rect x="111.33" width="17.37" height="17.37" transform="translate(128.69 -111.33) rotate(90)"/><rect x="103.04" y="8.29" width="17.37" height="17.37" transform="translate(128.69 -94.75) rotate(90)"/><rect x="94.75" y="16.58" width="17.37" height="17.37" transform="translate(128.69 -78.17) rotate(90)"/><rect x="86.46" y="24.87" width="17.37" height="17.37" transform="translate(128.69 -61.59) rotate(90)"/><rect x="78.17" y="33.16" width="17.37" height="17.37" transform="translate(128.69 -45.01) rotate(90)"/><rect x="69.88" y="41.45" width="17.37" height="17.37" transform="translate(128.69 -28.43) rotate(90)"/><rect x="41.45" y="69.88" width="17.37" height="17.37" transform="translate(128.69 28.43) rotate(90)"/><rect x="33.16" y="78.17" width="17.37" height="17.37" transform="translate(128.69 45.01) rotate(90)"/><rect x="24.87" y="86.46" width="17.37" height="17.37" transform="translate(128.69 61.59) rotate(90)"/><rect x="16.58" y="94.75" width="17.37" height="17.37" transform="translate(128.69 78.17) rotate(90)"/><rect x="8.29" y="103.04" width="17.37" height="17.37" transform="translate(128.69 94.75) rotate(90)"/><rect y="111.33" width="17.37" height="17.37" transform="translate(128.69 111.33) rotate(90)"/></svg>