<svg id="Capa_1" data-name="Capa 1" xmlns="http://www.w3.org/2000/svg" viewBox="0 0 143.29 143.29"><polygon points="78.16 0 78.16 26.05 84.67 26.05 84.67 39.08 91.19 39.08 91.19 52.11 104.21 52.11 104.21 58.62 117.24 58.62 117.24 65.13 143.29 65.13 143.29 78.16 117.24 78.16 117.24 84.67 104.21 84.67 104.21 91.19 91.19 91.19 91.19 104.21 84.67 104.21 84.67 117.24 78.16 117.24 78.16 143.29 65.13 143.29 65.13 117.24 58.62 117.24 58.62 104.21 52.11 104.21 52.11 91.19 39.08 91.19 39.08 84.67 26.05 84.67 26.05 78.16 0 78.16 0 65.13 26.05 65.13 26.05 58.62 39.08 58.62 39.08 52.11 52.11 52.11 52.11 39.08 58.62 39.08 58.62 26.05 65.13 26.05 65.13 0 78.16 0"/></svg>