<svg id="Capa_1" data-name="Capa 1" xmlns="http://www.w3.org/2000/svg" viewBox="0 0 146.2 146.2"><rect x="49.81" y="52.56" width="46.58" height="41.08"/><rect x="63.4" y="6.31" width="19.41" height="133.59"/><rect x="68.25" width="9.7" height="146.2"/><rect x="68.25" width="9.7" height="146.2" transform="translate(146.2 0) rotate(90)"/><rect x="63.4" y="6.31" width="19.41" height="133.59" transform="translate(146.2 0) rotate(90)"/><rect x="81.54" y="81.2" width="14.85" height="12.44"/><rect x="86.96" y="86.62" width="14.85" height="12.44"/><rect x="92.37" y="92.04" width="14.85" height="12.44"/><rect x="97.79" y="97.46" width="14.85" height="12.44"/><rect x="103.21" y="102.87" width="14.85" height="12.44"/><rect x="108.63" y="108.29" width="14.85" height="12.44"/><rect x="114.05" y="113.71" width="14.85" height="12.44"/><rect x="18.63" y="18.29" width="14.85" height="12.44"/><rect x="24.04" y="23.71" width="14.85" height="12.44"/><rect x="29.46" y="29.12" width="14.85" height="12.44"/><rect x="34.88" y="34.54" width="14.85" height="12.44"/><rect x="40.3" y="39.96" width="14.85" height="12.44"/><rect x="45.72" y="45.38" width="14.85" height="12.44"/><rect x="45.72" y="86.62" width="14.85" height="12.44" transform="translate(145.98 39.7) rotate(90)"/><rect x="40.3" y="92.04" width="14.85" height="12.44" transform="translate(145.98 50.53) rotate(90)"/><rect x="34.88" y="97.46" width="14.85" height="12.44" transform="translate(145.98 61.37) rotate(90)"/><rect x="29.46" y="102.87" width="14.85" height="12.44" transform="translate(145.98 72.21) rotate(90)"/><rect x="24.04" y="108.29" width="14.85" height="12.44" transform="translate(145.98 83.04) rotate(90)"/><rect x="18.63" y="113.71" width="14.85" height="12.44" transform="translate(145.98 93.88) rotate(90)"/><rect x="114.05" y="18.29" width="14.85" height="12.44" transform="translate(145.98 -96.96) rotate(90)"/><rect x="108.63" y="23.71" width="14.85" height="12.44" transform="translate(145.98 -86.13) rotate(90)"/><rect x="103.21" y="29.12" width="14.85" height="12.44" transform="translate(145.98 -75.29) rotate(90)"/><rect x="97.79" y="34.54" width="14.85" height="12.44" transform="translate(145.98 -64.46) rotate(90)"/><rect x="92.37" y="39.96" width="14.85" height="12.44" transform="translate(145.98 -53.62) rotate(90)"/><rect x="86.96" y="45.38" width="14.85" height="12.44" transform="translate(145.98 -42.78) rotate(90)"/></svg>