<svg id="Capa_1" data-name="Capa 1" xmlns="http://www.w3.org/2000/svg" viewBox="0 0 133.3 131.95"><title>estrella</title><rect x="62.19" y="56.15" width="8.91" height="75.8"/><rect x="13.18" y="85.02" width="75.8" height="8.91" transform="translate(-51.8 84.08) rotate(-57.27)"/><rect x="2.56" y="72.76" width="75.8" height="8.91" transform="translate(-28.42 23.79) rotate(-24.55)"/><rect x="33.69" y="23.25" width="8.91" height="75.8" transform="translate(-27.81 90.21) rotate(-81.82)"/><rect x="40.43" y="8.49" width="8.91" height="75.8" transform="translate(-19.57 49.94) rotate(-49.09)"/><rect x="54.08" y="-0.28" width="8.91" height="75.8" transform="translate(-8.23 18.02) rotate(-16.36)"/><rect x="36.86" y="33.16" width="75.8" height="8.91" transform="matrix(0.28, -0.96, 0.96, 0.28, 17.6, 98.76)"/><rect x="50.51" y="41.94" width="75.8" height="8.91" transform="translate(-8.79 69.23) rotate(-40.91)"/><rect x="57.25" y="56.69" width="75.8" height="8.91" transform="translate(-7.74 14.17) rotate(-8.18)"/><rect x="88.39" y="39.31" width="8.91" height="75.8" transform="translate(-15.96 129.59) rotate(-65.45)"/><rect x="77.76" y="51.57" width="8.91" height="75.8" transform="translate(-35.32 58.65) rotate(-32.73)"/></svg>