<svg width="144" height="38" viewBox="0 0 144 38" fill="none" xmlns="http://www.w3.org/2000/svg">
<g clip-path="url(#clip0_17_869)">
<path d="M11.19 30.4V22.9H3.7V30.4H0V12.36H3.7V19.76H11.2V12.36H14.9V30.4H11.2H11.19Z" fill="#F0F0F0"/>
<path d="M22.91 13.63L27.03 26.22H27.06L31.18 13.63H35.01C32.77 19.79 30.18 26.77 28 32.55C26.64 36.25 25.14 37.64 22.16 37.64C20.89 37.64 19.47 37.32 18.79 36.99L19.15 34.2C19.86 34.46 20.97 34.72 21.78 34.72C22.92 34.72 23.82 34.14 24.51 32.42L25.19 30.67L18.89 13.63H22.91Z" fill="#F0F0F0"/>
<path d="M52.61 30.4H48.55L46.93 25.99H40.51L39.02 30.4H35.22L41.39 12.36H46.03L52.62 30.4H52.61ZM43.66 15.7L41.23 22.97H46.13L43.73 15.7H43.67H43.66Z" fill="#F0F0F0"/>
<path d="M62.6101 30.79C60.9201 30.79 60.0801 29.98 60.0801 28.36C60.0801 26.74 60.9201 25.89 62.6101 25.89C64.3001 25.89 65.1401 26.73 65.1401 28.36C65.1401 29.99 64.3001 30.79 62.6101 30.79Z" fill="#F0F0F0"/>
<path d="M83.3999 23.42V12.36H87.1299V23.98C87.1299 28.68 84.1799 30.7 79.6699 30.7C74.5799 30.7 72.3999 28.53 72.3999 23.92V12.36H76.1299V23.33C76.1299 26.25 77.0399 27.61 79.7999 27.61C82.5599 27.61 83.3999 26.44 83.3999 23.42Z" fill="#F0F0F0"/>
<path d="M96.4801 17.23V30.4H93.0701V12.36H97.5801L104.95 25.53V12.36H108.32V30.4H104.01L96.4801 17.23Z" fill="#F0F0F0"/>
<path d="M126.27 27.32V30.4H114.49V12.36H118.19V27.32H126.27Z" fill="#F0F0F0"/>
<path d="M143.34 28.16C143.63 28.16 143.92 28.1 144.35 27.97L144.48 30.18C143.83 30.5 142.76 30.73 141.85 30.73C140.1 30.73 139.32 30.05 139.03 28.75C137.89 29.98 136.04 30.79 133.71 30.79C129.49 30.79 128.75 27.93 128.75 26.28C128.75 21.93 132.45 20.5 136.96 20.5C137.74 20.5 138.23 20.53 138.68 20.56V19.29C138.68 17.25 138.23 16.08 135.76 16.08C133.72 16.08 133.03 16.92 132.68 18.68L129.4 18.1C129.92 14.95 131.93 13.27 136.05 13.27C140.17 13.27 142.35 14.92 142.35 19.11V26.86C142.35 27.77 142.51 28.16 143.36 28.16H143.34ZM137.14 23.07C135.26 23.07 132.53 23.3 132.53 25.76C132.53 26.93 133.05 28 135.03 28C136.56 28 137.95 27.22 138.7 26.44V23.13C138.38 23.1 137.99 23.07 137.14 23.07Z" fill="#F0F0F0"/>
</g>
<defs>
<clipPath id="clip0_17_869">
<rect width="144" height="38" fill="white"/>
</clipPath>
</defs>
</svg>
