<svg width="40" height="40" viewBox="0 0 40 40" fill="none" xmlns="http://www.w3.org/2000/svg">
<path d="M11.5985 0H28.3985C34.7985 0 39.9985 5.2 39.9985 11.6V28.4C39.9985 31.4765 38.7764 34.427 36.601 36.6024C34.4256 38.7779 31.475 40 28.3985 40H11.5985C5.19854 40 -0.00146484 34.8 -0.00146484 28.4V11.6C-0.00146484 8.52349 1.22067 5.57298 3.3961 3.39756C5.57152 1.22214 8.52202 0 11.5985 0ZM11.1985 4C9.28898 4 7.45763 4.75857 6.10737 6.10883C4.7571 7.45909 3.99854 9.29044 3.99854 11.2V28.8C3.99854 32.78 7.21853 36 11.1985 36H28.7985C30.7081 36 32.5394 35.2414 33.8897 33.8912C35.24 32.5409 35.9985 30.7096 35.9985 28.8V11.2C35.9985 7.22 32.7785 4 28.7985 4H11.1985ZM30.4985 7C31.1616 7 31.7975 7.26339 32.2663 7.73223C32.7351 8.20107 32.9985 8.83696 32.9985 9.5C32.9985 10.163 32.7351 10.7989 32.2663 11.2678C31.7975 11.7366 31.1616 12 30.4985 12C29.8355 12 29.1996 11.7366 28.7308 11.2678C28.2619 10.7989 27.9985 10.163 27.9985 9.5C27.9985 8.83696 28.2619 8.20107 28.7308 7.73223C29.1996 7.26339 29.8355 7 30.4985 7ZM19.9985 10C22.6507 10 25.1942 11.0536 27.0696 12.9289C28.945 14.8043 29.9985 17.3478 29.9985 20C29.9985 22.6522 28.945 25.1957 27.0696 27.0711C25.1942 28.9464 22.6507 30 19.9985 30C17.3464 30 14.8028 28.9464 12.9275 27.0711C11.0521 25.1957 9.99854 22.6522 9.99854 20C9.99854 17.3478 11.0521 14.8043 12.9275 12.9289C14.8028 11.0536 17.3464 10 19.9985 10ZM19.9985 14C18.4072 14 16.8811 14.6321 15.7559 15.7574C14.6307 16.8826 13.9985 18.4087 13.9985 20C13.9985 21.5913 14.6307 23.1174 15.7559 24.2426C16.8811 25.3679 18.4072 26 19.9985 26C21.5898 26 23.116 25.3679 24.2412 24.2426C25.3664 23.1174 25.9985 21.5913 25.9985 20C25.9985 18.4087 25.3664 16.8826 24.2412 15.7574C23.116 14.6321 21.5898 14 19.9985 14Z" fill="black"/>
</svg>
