<svg width="159" height="98" viewBox="0 0 159 98" fill="none" xmlns="http://www.w3.org/2000/svg">
<g clip-path="url(#clip0_32_1176)">
<path d="M2.81999 16.13C1.91999 15.74 1.21999 15.2 0.72999 14.5C0.23999 13.8 -0.0100098 12.97 -0.0100098 12.03V11.45C-0.0100098 11.37 0.0199902 11.31 0.0699902 11.25C0.11999 11.19 0.18999 11.17 0.26999 11.17H2.34999C2.42999 11.17 2.48999 11.2 2.54999 11.25C2.60999 11.3 2.62999 11.37 2.62999 11.45V11.89C2.62999 12.61 2.94999 13.2 3.58999 13.68C4.22999 14.15 5.09999 14.39 6.19999 14.39C7.14999 14.39 7.85999 14.19 8.34999 13.78C8.82999 13.38 9.06999 12.85 9.06999 12.22C9.06999 11.78 8.93999 11.41 8.66999 11.11C8.39999 10.81 8.02999 10.53 7.53999 10.28C7.04999 10.03 6.30999 9.72 5.32999 9.35C4.22999 8.95 3.32999 8.56 2.64999 8.21C1.95999 7.85 1.38999 7.37 0.92999 6.75C0.46999 6.13 0.23999 5.37 0.23999 4.45C0.25999 3.07 0.74999 1.98 1.74999 1.19C2.74999 0.4 4.07999 0 5.73999 0C6.90999 0 7.93999 0.2 8.82999 0.61C9.72999 1.01 10.42 1.58 10.92 2.3C11.42 3.02 11.67 3.86 11.67 4.81V5.21C11.67 5.29 11.64 5.35 11.59 5.41C11.54 5.47 11.47 5.49 11.39 5.49H9.28999C9.20999 5.49 9.14999 5.46 9.08999 5.41C9.03999 5.36 9.00999 5.29 9.00999 5.21V4.95C9.00999 4.22 8.70999 3.6 8.10999 3.09C7.50999 2.58 6.67999 2.33 5.61999 2.33C4.75999 2.33 4.09999 2.51 3.61999 2.87C3.14999 3.23 2.90999 3.73 2.90999 4.39C2.90999 4.86 3.02999 5.24 3.27999 5.53C3.52999 5.83 3.89999 6.09 4.39999 6.34C4.89999 6.59 5.66999 6.89 6.70999 7.26C7.80999 7.68 8.69999 8.06 9.35999 8.4C10.02 8.74 10.59 9.22 11.06 9.84C11.53 10.45 11.77 11.22 11.77 12.14C11.77 13.54 11.25 14.65 10.22 15.48C9.18999 16.31 7.76999 16.72 5.97999 16.72C4.76999 16.72 3.70999 16.53 2.80999 16.14L2.81999 16.13Z" fill="black"/>
<path d="M26.8999 2.44C26.8499 2.49 26.7799 2.52 26.6999 2.52H18.7399C18.6599 2.52 18.6199 2.56 18.6199 2.64V7C18.6199 7.08 18.6599 7.12 18.7399 7.12H24.0799C24.1599 7.12 24.2199 7.15 24.2799 7.2C24.3299 7.25 24.3599 7.32 24.3599 7.4V9.17C24.3599 9.25 24.3299 9.31 24.2799 9.37C24.2299 9.43 24.1599 9.45 24.0799 9.45H18.7399C18.6599 9.45 18.6199 9.49 18.6199 9.57V14.07C18.6199 14.15 18.6599 14.19 18.7399 14.19H26.6999C26.7799 14.19 26.8399 14.22 26.8999 14.27C26.9499 14.32 26.9799 14.39 26.9799 14.47V16.24C26.9799 16.32 26.9499 16.38 26.8999 16.44C26.8499 16.5 26.7799 16.52 26.6999 16.52H16.1999C16.1199 16.52 16.0599 16.49 15.9999 16.44C15.9499 16.39 15.9199 16.32 15.9199 16.24V0.470002C15.9199 0.390002 15.9499 0.330002 15.9999 0.270002C16.0499 0.210002 16.1199 0.190002 16.1999 0.190002H26.6999C26.7799 0.190002 26.8399 0.220002 26.8999 0.270002C26.9499 0.320002 26.9799 0.390002 26.9799 0.470002V2.24C26.9799 2.32 26.9499 2.38 26.8999 2.44Z" fill="black"/>
<path d="M42.4601 0.190002H44.6101C44.6901 0.190002 44.7501 0.220002 44.8101 0.270002C44.8601 0.320002 44.8901 0.390002 44.8901 0.470002V16.25C44.8901 16.33 44.8601 16.39 44.8101 16.45C44.7601 16.5 44.6901 16.53 44.6101 16.53H42.4601C42.3801 16.53 42.3201 16.5 42.2601 16.45C42.2001 16.4 42.1801 16.33 42.1801 16.25V5.11C42.1801 5.11 42.1601 5.03 42.1201 5.02C42.0801 5 42.0501 5.02 42.0401 5.07L39.1201 9.55C39.0401 9.67 38.9301 9.74 38.7901 9.74H37.7201C37.5801 9.74 37.4701 9.68 37.3901 9.55L34.4501 5.09C34.4501 5.09 34.4101 5.03 34.3701 5.04C34.3301 5.06 34.3101 5.09 34.3101 5.13V16.24C34.3101 16.32 34.2801 16.38 34.2301 16.44C34.1801 16.5 34.1101 16.52 34.0301 16.52H31.8801C31.8001 16.52 31.7401 16.49 31.6801 16.44C31.6301 16.39 31.6001 16.32 31.6001 16.24V0.470002C31.6001 0.390002 31.6301 0.330002 31.6801 0.270002C31.7301 0.210002 31.8001 0.190002 31.8801 0.190002H34.0301C34.1701 0.190002 34.2801 0.250002 34.3601 0.380002L38.1601 6.14C38.1601 6.14 38.2201 6.19 38.2501 6.19C38.2801 6.19 38.3001 6.17 38.3201 6.14L42.1201 0.380002C42.2001 0.260002 42.3101 0.190002 42.4501 0.190002H42.4601Z" fill="black"/>
<path d="M58.82 16.29L58.05 13.79C58.02 13.73 57.98 13.7 57.93 13.7H51.77C51.77 13.7 51.68 13.73 51.65 13.79L50.88 16.29C50.83 16.45 50.73 16.52 50.58 16.52H48.25C48.16 16.52 48.09 16.49 48.04 16.44C47.99 16.39 47.98 16.3 48.02 16.19L53.08 0.420002C53.13 0.260002 53.23 0.190002 53.38 0.190002H56.3C56.46 0.190002 56.56 0.270002 56.6 0.420002L61.69 16.2C61.69 16.2 61.71 16.27 61.71 16.32C61.71 16.46 61.62 16.53 61.45 16.53H59.12C58.96 16.53 58.86 16.45 58.82 16.3V16.29ZM52.47 11.58H57.21C57.3 11.58 57.33 11.53 57.3 11.44L54.9 3.62C54.88 3.56 54.86 3.53 54.83 3.53C54.8 3.53 54.78 3.56 54.76 3.62L52.38 11.44C52.36 11.53 52.4 11.58 52.47 11.58Z" fill="black"/>
<path d="M74.1601 0.270002C74.2101 0.220002 74.2801 0.190002 74.3601 0.190002H76.5101C76.5901 0.190002 76.6501 0.220002 76.7101 0.270002C76.7601 0.320002 76.7901 0.390002 76.7901 0.470002V16.25C76.7901 16.33 76.7601 16.39 76.7101 16.45C76.6601 16.5 76.5901 16.53 76.5101 16.53H74.4301C74.2701 16.53 74.1601 16.47 74.1001 16.34L67.3801 5.32C67.3801 5.32 67.3201 5.25 67.2901 5.26C67.2601 5.27 67.2401 5.3 67.2401 5.36L67.2901 16.24C67.2901 16.32 67.2601 16.38 67.2101 16.44C67.1601 16.5 67.0901 16.52 67.0101 16.52H64.8601C64.7801 16.52 64.7201 16.49 64.6601 16.44C64.6101 16.39 64.5801 16.32 64.5801 16.24V0.470002C64.5801 0.390002 64.6101 0.330002 64.6601 0.270002C64.7101 0.210002 64.7801 0.190002 64.8601 0.190002H66.9401C67.1001 0.190002 67.2001 0.250002 67.2701 0.380002L73.9701 11.4C73.9701 11.4 74.0301 11.47 74.0601 11.46C74.0901 11.46 74.1101 11.42 74.1101 11.36L74.0901 0.480002C74.0901 0.400002 74.1201 0.340002 74.1701 0.280002L74.1601 0.270002Z" fill="black"/>
<path d="M90.7199 16.29L89.9499 13.79C89.9199 13.73 89.8799 13.7 89.8299 13.7H83.6699C83.6699 13.7 83.5799 13.73 83.5499 13.79L82.7799 16.29C82.7299 16.45 82.6299 16.52 82.4799 16.52H80.1499C80.0599 16.52 79.9899 16.49 79.9399 16.44C79.8899 16.39 79.8799 16.3 79.9199 16.19L84.9799 0.420002C85.0299 0.260002 85.1299 0.190002 85.2799 0.190002H88.1999C88.3599 0.190002 88.4599 0.270002 88.4999 0.420002L93.5899 16.2C93.5899 16.2 93.6099 16.27 93.6099 16.32C93.6099 16.46 93.5199 16.53 93.3499 16.53H91.0199C90.8599 16.53 90.7599 16.45 90.7199 16.3V16.29ZM84.3799 11.58H89.1199C89.2099 11.58 89.2399 11.53 89.2099 11.44L86.8099 3.62C86.7899 3.56 86.7699 3.53 86.7399 3.53C86.7099 3.53 86.6899 3.56 86.6699 3.62L84.2899 11.44C84.2699 11.53 84.3099 11.58 84.3799 11.58Z" fill="black"/>
<path d="M9.05008 24.32C9.10008 24.27 9.17008 24.24 9.25008 24.24H11.4001C11.4801 24.24 11.5401 24.27 11.6001 24.32C11.6501 24.37 11.6801 24.44 11.6801 24.52V40.3C11.6801 40.38 11.6501 40.44 11.6001 40.5C11.5501 40.56 11.4801 40.58 11.4001 40.58H9.25008C9.17008 40.58 9.11008 40.55 9.05008 40.5C8.99008 40.45 8.97008 40.38 8.97008 40.3V33.63C8.97008 33.55 8.93008 33.51 8.85008 33.51H2.90008C2.82008 33.51 2.78008 33.55 2.78008 33.63V40.3C2.78008 40.38 2.75008 40.44 2.70008 40.5C2.65008 40.56 2.58008 40.58 2.50008 40.58H0.360078C0.280078 40.58 0.220078 40.55 0.160078 40.5C0.110078 40.45 0.0800781 40.38 0.0800781 40.3V24.52C0.0800781 24.44 0.110078 24.38 0.160078 24.32C0.210078 24.26 0.280078 24.24 0.360078 24.24H2.51008C2.59008 24.24 2.65008 24.27 2.71008 24.32C2.76008 24.37 2.79008 24.44 2.79008 24.52V31.05C2.79008 31.13 2.83008 31.17 2.91008 31.17H8.86008C8.94008 31.17 8.98008 31.13 8.98008 31.05V24.52C8.98008 24.44 9.01008 24.38 9.06008 24.32H9.05008Z" fill="black"/>
<path d="M18.54 40.08C17.65 39.63 16.96 38.99 16.47 38.15C15.98 37.31 15.73 36.36 15.73 35.27V24.51C15.73 24.43 15.76 24.37 15.81 24.31C15.86 24.26 15.93 24.23 16.01 24.23H18.16C18.24 24.23 18.3 24.26 18.36 24.31C18.41 24.36 18.44 24.43 18.44 24.51V35.32C18.44 36.24 18.73 36.99 19.3 37.56C19.88 38.14 20.64 38.42 21.59 38.42C22.54 38.42 23.3 38.13 23.88 37.56C24.46 36.98 24.74 36.24 24.74 35.32V24.51C24.74 24.43 24.77 24.37 24.82 24.31C24.87 24.26 24.94 24.23 25.02 24.23H27.17C27.25 24.23 27.31 24.26 27.37 24.31C27.42 24.36 27.45 24.43 27.45 24.51V35.27C27.45 36.36 27.21 37.32 26.73 38.15C26.25 38.98 25.56 39.62 24.68 40.08C23.79 40.53 22.77 40.76 21.6 40.76C20.43 40.76 19.43 40.53 18.54 40.08Z" fill="black"/>
<path d="M42.5101 24.24H44.6601C44.7401 24.24 44.8001 24.27 44.8601 24.32C44.9101 24.37 44.9401 24.44 44.9401 24.52V40.3C44.9401 40.38 44.9101 40.44 44.8601 40.5C44.8101 40.55 44.7401 40.58 44.6601 40.58H42.5101C42.4301 40.58 42.3701 40.55 42.3101 40.5C42.2501 40.45 42.2301 40.38 42.2301 40.3V29.17C42.2301 29.17 42.2101 29.09 42.1701 29.08C42.1301 29.06 42.1001 29.08 42.0901 29.13L39.1701 33.61C39.0901 33.73 38.9801 33.8 38.8401 33.8H37.7701C37.6301 33.8 37.5201 33.74 37.4401 33.61L34.5001 29.15C34.5001 29.15 34.4601 29.09 34.4201 29.1C34.3801 29.12 34.3601 29.15 34.3601 29.19V40.3C34.3601 40.38 34.3301 40.44 34.2801 40.5C34.2301 40.56 34.1601 40.58 34.0801 40.58H31.9301C31.8501 40.58 31.7901 40.55 31.7301 40.5C31.6801 40.45 31.6501 40.38 31.6501 40.3V24.52C31.6501 24.44 31.6801 24.38 31.7301 24.32C31.7801 24.26 31.8501 24.24 31.9301 24.24H34.0801C34.2201 24.24 34.3301 24.3 34.4101 24.43L38.2101 30.19C38.2101 30.19 38.2701 30.24 38.3001 30.24C38.3301 30.24 38.3501 30.22 38.3701 30.19L42.1701 24.43C42.2501 24.31 42.3601 24.24 42.5001 24.24H42.5101Z" fill="black"/>
<path d="M58.8701 40.34L58.1001 37.84C58.0701 37.78 58.0301 37.75 57.9801 37.75H51.8201C51.8201 37.75 51.7301 37.78 51.7001 37.84L50.9301 40.34C50.8801 40.5 50.7801 40.57 50.6301 40.57H48.3001C48.2101 40.57 48.1401 40.54 48.0901 40.49C48.0401 40.44 48.0301 40.35 48.0701 40.24L53.1401 24.46C53.1901 24.3 53.2901 24.23 53.4401 24.23H56.3601C56.5201 24.23 56.6201 24.31 56.6601 24.46L61.7501 40.24C61.7501 40.24 61.7701 40.31 61.7701 40.36C61.7701 40.5 61.6801 40.57 61.5101 40.57H59.1801C59.0201 40.57 58.9201 40.49 58.8801 40.34H58.8701ZM52.5201 35.63H57.2601C57.3501 35.63 57.3801 35.58 57.3501 35.49L54.9501 27.67C54.9301 27.61 54.9101 27.58 54.8801 27.58C54.8501 27.58 54.8301 27.61 54.8101 27.67L52.4301 35.49C52.4101 35.58 52.4501 35.63 52.5201 35.63Z" fill="black"/>
<path d="M74.2201 24.32C74.2701 24.27 74.3401 24.24 74.4201 24.24H76.5701C76.6501 24.24 76.7101 24.27 76.7701 24.32C76.8201 24.37 76.8501 24.44 76.8501 24.52V40.3C76.8501 40.38 76.8201 40.44 76.7701 40.5C76.7201 40.55 76.6501 40.58 76.5701 40.58H74.4901C74.3301 40.58 74.2201 40.52 74.1601 40.39L67.4401 29.37C67.4401 29.37 67.3801 29.3 67.3501 29.31C67.3201 29.32 67.3001 29.35 67.3001 29.41L67.3501 40.29C67.3501 40.37 67.3201 40.43 67.2701 40.49C67.2201 40.55 67.1501 40.57 67.0701 40.57H64.9201C64.8401 40.57 64.7801 40.54 64.7201 40.49C64.6701 40.44 64.6401 40.37 64.6401 40.29V24.51C64.6401 24.43 64.6701 24.37 64.7201 24.31C64.7701 24.25 64.8401 24.23 64.9201 24.23H67.0001C67.1601 24.23 67.2601 24.29 67.3301 24.42L74.0301 35.44C74.0301 35.44 74.0901 35.51 74.1201 35.5C74.1501 35.5 74.1701 35.46 74.1701 35.4L74.1501 24.52C74.1501 24.44 74.1801 24.38 74.2301 24.32H74.2201Z" fill="black"/>
<path d="M81.2702 40.49C81.2202 40.44 81.1902 40.37 81.1902 40.29V24.51C81.1902 24.43 81.2202 24.37 81.2702 24.31C81.3202 24.25 81.3902 24.23 81.4702 24.23H83.6202C83.7002 24.23 83.7602 24.26 83.8202 24.31C83.8702 24.36 83.9002 24.43 83.9002 24.51V40.29C83.9002 40.37 83.8702 40.43 83.8202 40.49C83.7702 40.55 83.7002 40.57 83.6202 40.57H81.4702C81.3902 40.57 81.3302 40.54 81.2702 40.49Z" fill="black"/>
<path d="M88.31 40.49C88.26 40.44 88.23 40.37 88.23 40.29V24.51C88.23 24.43 88.26 24.37 88.31 24.31C88.36 24.25 88.43 24.23 88.51 24.23H94.21C95.31 24.23 96.29 24.43 97.13 24.81C97.97 25.2 98.62 25.76 99.08 26.48C99.54 27.2 99.77 28.05 99.77 29.01V35.78C99.77 36.74 99.54 37.59 99.08 38.31C98.62 39.03 97.97 39.59 97.13 39.98C96.29 40.37 95.32 40.56 94.21 40.56H88.51C88.43 40.56 88.37 40.53 88.31 40.48V40.49ZM91.06 38.24H94.33C95.15 38.24 95.81 37.98 96.3 37.46C96.79 36.94 97.04 36.24 97.06 35.37V29.47C97.06 28.58 96.81 27.88 96.31 27.36C95.81 26.84 95.14 26.58 94.3 26.58H91.06C90.98 26.58 90.94 26.62 90.94 26.7V38.14C90.94 38.22 90.98 38.26 91.06 38.26V38.24Z" fill="black"/>
<path d="M112.41 40.34L111.64 37.84C111.61 37.78 111.57 37.75 111.52 37.75H105.36C105.36 37.75 105.27 37.78 105.24 37.84L104.47 40.34C104.42 40.5 104.32 40.57 104.17 40.57H101.84C101.75 40.57 101.68 40.54 101.63 40.49C101.58 40.44 101.57 40.35 101.61 40.24L106.68 24.46C106.73 24.3 106.83 24.23 106.98 24.23H109.9C110.06 24.23 110.16 24.31 110.2 24.46L115.29 40.24C115.29 40.24 115.31 40.31 115.31 40.36C115.31 40.5 115.22 40.57 115.05 40.57H112.72C112.56 40.57 112.46 40.49 112.42 40.34H112.41ZM106.07 35.63H110.81C110.9 35.63 110.93 35.58 110.9 35.49L108.5 27.67C108.48 27.61 108.46 27.58 108.43 27.58C108.4 27.58 108.38 27.61 108.36 27.67L105.98 35.49C105.96 35.58 106 35.63 106.07 35.63Z" fill="black"/>
<path d="M118.03 40.49C117.98 40.44 117.95 40.37 117.95 40.29V24.51C117.95 24.43 117.98 24.37 118.03 24.31C118.08 24.25 118.15 24.23 118.23 24.23H123.93C125.03 24.23 126.01 24.43 126.85 24.81C127.69 25.2 128.34 25.76 128.8 26.48C129.26 27.2 129.49 28.05 129.49 29.01V35.78C129.49 36.74 129.26 37.59 128.8 38.31C128.34 39.03 127.69 39.59 126.85 39.98C126.01 40.37 125.04 40.56 123.93 40.56H118.23C118.15 40.56 118.09 40.53 118.03 40.48V40.49ZM120.77 38.24H124.04C124.86 38.24 125.52 37.98 126.01 37.46C126.5 36.94 126.75 36.24 126.77 35.37V29.47C126.77 28.58 126.52 27.88 126.02 27.36C125.52 26.84 124.85 26.58 124.01 26.58H120.77C120.69 26.58 120.65 26.62 120.65 26.7V38.14C120.65 38.22 120.69 38.26 120.77 38.26V38.24Z" fill="black"/>
<path d="M144.28 26.49C144.23 26.54 144.16 26.57 144.08 26.57H136.12C136.04 26.57 136 26.61 136 26.69V31.05C136 31.13 136.04 31.17 136.12 31.17H141.46C141.54 31.17 141.6 31.2 141.66 31.25C141.71 31.3 141.74 31.37 141.74 31.45V33.22C141.74 33.3 141.71 33.36 141.66 33.42C141.61 33.48 141.54 33.5 141.46 33.5H136.12C136.04 33.5 136 33.54 136 33.62V38.12C136 38.2 136.04 38.24 136.12 38.24H144.08C144.16 38.24 144.22 38.27 144.28 38.32C144.33 38.37 144.36 38.44 144.36 38.52V40.29C144.36 40.37 144.33 40.43 144.28 40.49C144.23 40.55 144.16 40.57 144.08 40.57H133.58C133.5 40.57 133.44 40.54 133.38 40.49C133.33 40.44 133.3 40.37 133.3 40.29V24.51C133.3 24.43 133.33 24.37 133.38 24.31C133.43 24.25 133.5 24.23 133.58 24.23H144.08C144.16 24.23 144.22 24.26 144.28 24.31C144.33 24.36 144.36 24.43 144.36 24.51V26.28C144.36 26.36 144.33 26.42 144.28 26.48V26.49Z" fill="black"/>
<path d="M149.92 40.18C149.02 39.79 148.32 39.25 147.83 38.55C147.34 37.85 147.09 37.02 147.09 36.08V35.5C147.09 35.42 147.12 35.36 147.17 35.3C147.22 35.24 147.29 35.22 147.37 35.22H149.45C149.53 35.22 149.59 35.25 149.65 35.3C149.71 35.35 149.73 35.42 149.73 35.5V35.94C149.73 36.66 150.05 37.25 150.69 37.73C151.33 38.2 152.2 38.44 153.3 38.44C154.25 38.44 154.96 38.24 155.45 37.83C155.93 37.43 156.17 36.9 156.17 36.27C156.17 35.83 156.04 35.46 155.77 35.16C155.5 34.86 155.13 34.58 154.64 34.33C154.15 34.08 153.41 33.77 152.43 33.4C151.33 33 150.43 32.61 149.75 32.26C149.06 31.9 148.49 31.42 148.03 30.8C147.57 30.18 147.34 29.42 147.34 28.5C147.34 27.13 147.84 26.05 148.83 25.26C149.83 24.47 151.16 24.07 152.82 24.07C153.99 24.07 155.02 24.27 155.91 24.68C156.81 25.08 157.5 25.65 158 26.37C158.5 27.09 158.75 27.93 158.75 28.88V29.28C158.75 29.36 158.72 29.42 158.67 29.48C158.62 29.54 158.55 29.56 158.47 29.56H156.37C156.29 29.56 156.23 29.53 156.17 29.48C156.12 29.43 156.09 29.36 156.09 29.28V29.02C156.09 28.29 155.79 27.67 155.19 27.16C154.59 26.65 153.76 26.4 152.7 26.4C151.84 26.4 151.18 26.58 150.7 26.94C150.23 27.3 149.99 27.8 149.99 28.46C149.99 28.93 150.11 29.31 150.36 29.6C150.61 29.9 150.98 30.16 151.48 30.41C151.98 30.66 152.75 30.96 153.79 31.33C154.89 31.75 155.78 32.13 156.44 32.47C157.1 32.81 157.67 33.29 158.14 33.91C158.61 34.52 158.85 35.29 158.85 36.21C158.85 37.61 158.33 38.72 157.3 39.55C156.27 40.38 154.85 40.79 153.06 40.79C151.85 40.79 150.79 40.6 149.89 40.21L149.92 40.18Z" fill="black"/>
<path d="M74.5999 64.23C74.5499 64.18 74.5199 64.11 74.5199 64.03V57.77C74.5199 57.71 74.5199 57.66 74.4999 57.63L69.6899 48.32C69.6599 48.26 69.6399 48.21 69.6399 48.18C69.6399 48.06 69.7299 47.99 69.8999 47.99H72.2099C72.3699 47.99 72.4699 48.06 72.5399 48.2L75.8099 54.71C75.8599 54.77 75.8999 54.77 75.9499 54.71L79.2399 48.2C79.3199 48.06 79.4299 47.99 79.5699 47.99H81.8999C82.0099 47.99 82.0799 48.02 82.1199 48.08C82.1599 48.14 82.1499 48.22 82.1099 48.31L77.2799 57.62C77.2499 57.68 77.2299 57.73 77.2299 57.76V64.02C77.2299 64.1 77.1999 64.16 77.1499 64.22C77.0999 64.28 77.0299 64.3 76.9499 64.3H74.7999C74.7199 64.3 74.6599 64.27 74.5999 64.22V64.23Z" fill="black"/>
<path d="M99.2998 64.1L98.5298 61.6C98.4998 61.54 98.4598 61.51 98.4098 61.51H92.2498C92.2498 61.51 92.1598 61.54 92.1298 61.6L91.3598 64.1C91.3098 64.26 91.2098 64.33 91.0598 64.33H88.7298C88.6398 64.33 88.5698 64.3 88.5198 64.25C88.4698 64.2 88.4598 64.11 88.4998 64L93.5698 48.22C93.6198 48.06 93.7198 47.99 93.8698 47.99H96.7898C96.9498 47.99 97.0498 48.07 97.0898 48.22L102.18 64C102.18 64 102.2 64.07 102.2 64.12C102.2 64.26 102.11 64.33 101.94 64.33H99.6098C99.4498 64.33 99.3498 64.25 99.3098 64.1H99.2998ZM92.9498 59.39H97.6898C97.7798 59.39 97.8098 59.34 97.7798 59.25L95.3798 51.43C95.3598 51.37 95.3398 51.34 95.3098 51.34C95.2798 51.34 95.2598 51.37 95.2398 51.43L92.8598 59.25C92.8398 59.34 92.8798 59.39 92.9498 59.39Z" fill="black"/>
<path d="M113.91 64.13L110.83 57.41C110.8 57.35 110.75 57.32 110.69 57.32H107.89C107.81 57.32 107.77 57.36 107.77 57.44V64.07C107.77 64.15 107.74 64.21 107.69 64.27C107.64 64.33 107.57 64.35 107.49 64.35H105.34C105.26 64.35 105.2 64.32 105.14 64.27C105.09 64.22 105.06 64.15 105.06 64.07V48.29C105.06 48.21 105.09 48.15 105.14 48.09C105.19 48.03 105.26 48.01 105.34 48.01H111.76C112.71 48.01 113.55 48.21 114.28 48.61C115.01 49.01 115.58 49.57 115.98 50.29C116.38 51.01 116.59 51.84 116.59 52.78C116.59 53.85 116.31 54.77 115.76 55.52C115.21 56.27 114.44 56.8 113.46 57.1C113.43 57.1 113.41 57.12 113.39 57.15C113.37 57.18 113.37 57.21 113.39 57.24L116.68 64.03C116.71 64.09 116.73 64.14 116.73 64.17C116.73 64.29 116.64 64.36 116.47 64.36H114.23C114.07 64.36 113.96 64.29 113.9 64.15L113.91 64.13ZM107.78 50.45V55.1C107.78 55.18 107.82 55.22 107.9 55.22H111.4C112.15 55.22 112.75 55 113.21 54.56C113.67 54.12 113.9 53.53 113.9 52.8C113.9 52.07 113.67 51.48 113.21 51.03C112.75 50.58 112.15 50.35 111.4 50.35H107.9C107.82 50.35 107.78 50.39 107.78 50.47V50.45Z" fill="black"/>
<path d="M130.29 48.08C130.34 48.13 130.37 48.2 130.37 48.28V50.08C130.37 50.16 130.34 50.22 130.29 50.28C130.24 50.34 130.17 50.36 130.09 50.36H125.8C125.72 50.36 125.68 50.4 125.68 50.48V64.06C125.68 64.14 125.65 64.2 125.6 64.26C125.55 64.32 125.48 64.34 125.4 64.34H123.25C123.17 64.34 123.11 64.31 123.05 64.26C122.99 64.21 122.97 64.14 122.97 64.06V50.48C122.97 50.4 122.93 50.36 122.85 50.36H118.72C118.64 50.36 118.58 50.33 118.52 50.28C118.47 50.23 118.44 50.16 118.44 50.08V48.28C118.44 48.2 118.47 48.14 118.52 48.08C118.57 48.02 118.64 48 118.72 48H130.09C130.17 48 130.23 48.03 130.29 48.08Z" fill="black"/>
<path d="M144.31 50.25C144.26 50.3 144.19 50.33 144.11 50.33H136.15C136.07 50.33 136.03 50.37 136.03 50.45V54.81C136.03 54.89 136.07 54.93 136.15 54.93H141.49C141.57 54.93 141.63 54.96 141.69 55.01C141.74 55.06 141.77 55.13 141.77 55.21V56.98C141.77 57.06 141.74 57.12 141.69 57.18C141.64 57.24 141.57 57.26 141.49 57.26H136.15C136.07 57.26 136.03 57.3 136.03 57.38V61.88C136.03 61.96 136.07 62 136.15 62H144.11C144.19 62 144.25 62.03 144.31 62.08C144.36 62.13 144.39 62.2 144.39 62.28V64.05C144.39 64.13 144.36 64.19 144.31 64.25C144.26 64.31 144.19 64.33 144.11 64.33H133.61C133.53 64.33 133.47 64.3 133.41 64.25C133.36 64.2 133.33 64.13 133.33 64.05V48.27C133.33 48.19 133.36 48.13 133.41 48.07C133.46 48.01 133.53 47.99 133.61 47.99H144.11C144.19 47.99 144.25 48.02 144.31 48.07C144.36 48.12 144.39 48.19 144.39 48.27V50.04C144.39 50.12 144.36 50.18 144.31 50.24V50.25Z" fill="black"/>
<path d="M149.95 63.94C149.05 63.55 148.35 63.01 147.86 62.31C147.37 61.61 147.12 60.78 147.12 59.84V59.26C147.12 59.18 147.15 59.12 147.2 59.06C147.25 59 147.32 58.98 147.4 58.98H149.48C149.56 58.98 149.62 59.01 149.68 59.06C149.74 59.11 149.76 59.18 149.76 59.26V59.7C149.76 60.42 150.08 61.01 150.72 61.49C151.36 61.96 152.23 62.2 153.33 62.2C154.28 62.2 154.99 62 155.48 61.59C155.96 61.19 156.2 60.66 156.2 60.03C156.2 59.59 156.07 59.22 155.8 58.92C155.53 58.62 155.16 58.34 154.67 58.09C154.18 57.84 153.44 57.53 152.46 57.16C151.36 56.76 150.46 56.37 149.78 56.02C149.09 55.66 148.52 55.18 148.06 54.56C147.6 53.94 147.37 53.18 147.37 52.26C147.37 50.89 147.87 49.81 148.86 49.02C149.86 48.23 151.19 47.83 152.85 47.83C154.02 47.83 155.05 48.03 155.94 48.44C156.84 48.84 157.53 49.41 158.03 50.13C158.53 50.85 158.78 51.69 158.78 52.64V53.04C158.78 53.12 158.75 53.18 158.7 53.24C158.65 53.3 158.58 53.32 158.5 53.32H156.4C156.32 53.32 156.26 53.29 156.2 53.24C156.15 53.19 156.12 53.12 156.12 53.04V52.78C156.12 52.05 155.82 51.43 155.22 50.92C154.62 50.41 153.79 50.16 152.73 50.16C151.87 50.16 151.21 50.34 150.73 50.7C150.26 51.06 150.02 51.56 150.02 52.22C150.02 52.69 150.14 53.07 150.39 53.36C150.64 53.66 151.01 53.92 151.51 54.17C152.01 54.42 152.78 54.72 153.82 55.09C154.92 55.51 155.81 55.89 156.47 56.23C157.13 56.57 157.7 57.05 158.17 57.67C158.64 58.28 158.88 59.05 158.88 59.97C158.88 61.37 158.36 62.48 157.33 63.31C156.3 64.14 154.88 64.55 153.09 64.55C151.88 64.55 150.82 64.36 149.92 63.97L149.95 63.94Z" fill="black"/>
<path d="M2.92011 96.97C2.03011 96.52 1.35011 95.88 0.850107 95.04C0.360107 94.21 0.110107 93.25 0.110107 92.16V81.4C0.110107 81.32 0.140107 81.26 0.190107 81.2C0.240107 81.14 0.310107 81.12 0.390107 81.12H2.54011C2.62011 81.12 2.68011 81.15 2.74011 81.2C2.79011 81.25 2.82011 81.32 2.82011 81.4V92.21C2.82011 93.13 3.11011 93.88 3.68011 94.45C4.25011 95.02 5.02011 95.31 5.97011 95.31C6.92011 95.31 7.68011 95.02 8.26011 94.45C8.84011 93.87 9.12011 93.13 9.12011 92.21V81.4C9.12011 81.32 9.15011 81.26 9.20011 81.2C9.25011 81.15 9.32011 81.12 9.40011 81.12H11.5501C11.6301 81.12 11.6901 81.15 11.7501 81.2C11.8101 81.25 11.8301 81.32 11.8301 81.4V92.16C11.8301 93.25 11.5901 94.21 11.1101 95.04C10.6301 95.87 9.94011 96.51 9.06011 96.97C8.17011 97.42 7.15011 97.65 5.98011 97.65C4.81011 97.65 3.81011 97.42 2.92011 96.97Z" fill="black"/>
<path d="M25.62 81.2C25.67 81.15 25.74 81.12 25.82 81.12H27.97C28.05 81.12 28.11 81.15 28.17 81.2C28.22 81.25 28.25 81.32 28.25 81.4V97.18C28.25 97.26 28.22 97.32 28.17 97.38C28.12 97.43 28.05 97.46 27.97 97.46H25.89C25.73 97.46 25.62 97.4 25.56 97.27L18.84 86.25C18.84 86.25 18.78 86.18 18.75 86.19C18.72 86.2 18.7 86.23 18.7 86.29L18.75 97.17C18.75 97.25 18.72 97.31 18.67 97.37C18.62 97.43 18.55 97.45 18.47 97.45H16.32C16.24 97.45 16.18 97.42 16.12 97.37C16.07 97.32 16.04 97.25 16.04 97.17V81.39C16.04 81.31 16.07 81.25 16.12 81.19C16.17 81.13 16.24 81.11 16.32 81.11H18.4C18.56 81.11 18.66 81.17 18.73 81.3L25.43 92.32C25.43 92.32 25.49 92.39 25.52 92.38C25.55 92.38 25.57 92.34 25.57 92.28L25.55 81.4C25.55 81.32 25.58 81.26 25.63 81.2H25.62Z" fill="black"/>
<path d="M32.6701 97.38C32.6201 97.33 32.5901 97.26 32.5901 97.18V81.4C32.5901 81.32 32.6201 81.26 32.6701 81.2C32.7201 81.14 32.7901 81.12 32.8701 81.12H35.0201C35.1001 81.12 35.1601 81.15 35.2201 81.2C35.2701 81.25 35.3001 81.32 35.3001 81.4V95.01C35.3001 95.09 35.3401 95.13 35.4201 95.13H41.8701C41.9501 95.13 42.0101 95.16 42.0701 95.21C42.1201 95.26 42.1501 95.33 42.1501 95.41V97.18C42.1501 97.26 42.1201 97.32 42.0701 97.38C42.0201 97.44 41.9501 97.46 41.8701 97.46H32.8801C32.8001 97.46 32.7401 97.43 32.6801 97.38H32.6701Z" fill="black"/>
<path d="M51.7001 85.86C52.4501 86.2 53.0201 86.67 53.4301 87.27C53.8301 87.87 54.0401 88.55 54.0401 89.31V97.18C54.0401 97.26 54.0101 97.32 53.9601 97.38C53.9101 97.44 53.8401 97.46 53.7601 97.46H51.6101C51.5301 97.46 51.4701 97.43 51.4101 97.38C51.3501 97.33 51.3301 97.26 51.3301 97.18V96.43C51.3301 96.43 51.3101 96.36 51.2801 96.35C51.2501 96.35 51.2201 96.35 51.1901 96.38C50.4301 97.22 49.3201 97.64 47.8801 97.64C46.7101 97.64 45.7501 97.35 45.0001 96.75C44.2401 96.16 43.8701 95.28 43.8701 94.11C43.8701 92.94 44.2901 91.95 45.1401 91.27C45.9901 90.59 47.1801 90.25 48.7201 90.25H51.2201C51.3001 90.25 51.3401 90.21 51.3401 90.13V89.57C51.3401 88.96 51.1601 88.49 50.8001 88.16C50.4401 87.83 49.9001 87.66 49.1901 87.66C48.6001 87.66 48.1201 87.76 47.7501 87.97C47.3801 88.18 47.1501 88.47 47.0601 88.85C47.0101 89.04 46.9001 89.12 46.7301 89.08L44.4701 88.8C44.3901 88.78 44.3301 88.76 44.2701 88.72C44.2201 88.68 44.2001 88.63 44.2101 88.57C44.3301 87.62 44.8401 86.84 45.7401 86.24C46.6401 85.63 47.7601 85.33 49.1101 85.33C50.0901 85.33 50.9501 85.5 51.7001 85.84V85.86ZM50.5101 94.89C51.0501 94.49 51.3301 93.97 51.3301 93.35V92.25C51.3301 92.17 51.2901 92.13 51.2101 92.13H49.2501C48.4201 92.13 47.7801 92.29 47.3001 92.6C46.8301 92.91 46.5901 93.36 46.5901 93.93C46.5901 94.43 46.7701 94.81 47.1401 95.09C47.5101 95.36 47.9801 95.5 48.5501 95.5C49.3101 95.5 49.9701 95.3 50.5101 94.89Z" fill="black"/>
<path d="M0.120117 72.82H158.88" stroke="black" stroke-width="0.75" stroke-miterlimit="10"/>
</g>
<defs>
<clipPath id="clip0_32_1176">
<rect width="158.91" height="97.65" fill="white"/>
</clipPath>
</defs>
</svg>
