<svg width="32" height="40" viewBox="0 0 32 40" fill="none" xmlns="http://www.w3.org/2000/svg">
<path d="M15.999 24.0007C20.4112 24.0007 23.9993 20.4126 23.9993 16.0005C23.9993 11.5884 20.4112 8.00024 15.999 8.00024C11.5869 8.00024 7.99878 11.5884 7.99878 16.0005C7.99878 20.4126 11.5869 24.0007 15.999 24.0007ZM15.999 12.0004C18.2051 12.0004 19.9992 13.7944 19.9992 16.0005C19.9992 18.2066 18.2051 20.0006 15.999 20.0006C13.793 20.0006 11.9989 18.2066 11.9989 16.0005C11.9989 13.7944 13.793 12.0004 15.999 12.0004Z" fill="black"/>
<path d="M14.8392 39.6292C15.1779 39.8704 15.5834 40 15.9992 40C16.415 40 16.8205 39.8704 17.1592 39.6292C17.7673 39.1992 32.0577 28.8809 31.9997 16.0005C31.9997 7.17822 24.8215 0 15.9992 0C7.17693 0 -0.00128876 7.17822 -0.00128876 15.9905C-0.0592906 28.8809 14.2312 39.1992 14.8392 39.6292ZM15.9992 4.00012C22.6174 4.00012 27.9996 9.38229 27.9996 16.0105C28.0416 24.8868 19.2233 32.857 15.9992 35.4711C12.7771 32.855 3.95683 24.8828 3.99883 16.0005C3.99883 9.38229 9.381 4.00012 15.9992 4.00012Z" fill="black"/>
</svg>
