<svg width="114" height="30" viewBox="0 0 114 30" fill="none" xmlns="http://www.w3.org/2000/svg">
<g clip-path="url(#clip0_32_1210)">
<path d="M17.5375 18.0131V0H23.491V18.9094C23.491 26.5679 18.7796 29.8397 11.5913 29.8397C3.46779 29.847 -0.00146484 26.3056 -0.00146484 18.8001V0H5.95195V17.8528C5.95195 22.6038 7.40104 24.8263 11.7983 24.8263C16.1955 24.8263 17.5447 22.9245 17.5447 18.0131H17.5375Z" fill="black"/>
<path d="M38.3959 7.92082V29.366H32.9636V0H40.1591L51.9018 21.4452V0H57.2841V29.366H50.4027L38.3959 7.92082Z" fill="black"/>
<path d="M85.5091 24.3527V29.3733H67.1135V0H73.0098V24.3527H85.502H85.5091Z" fill="black"/>
<path d="M112.185 25.7226C112.649 25.7226 113.113 25.6133 113.791 25.402L113.998 28.9944C112.963 29.5191 111.257 29.8907 109.808 29.8907C107.017 29.8907 105.775 28.7831 105.304 26.6699C103.491 28.6811 100.543 30 96.8164 30C90.092 30 88.8999 25.351 88.8999 22.6621C88.8999 15.5866 94.7962 13.2621 101.992 13.2621C103.234 13.2621 104.012 13.3131 104.733 13.3641V11.3019C104.733 7.97184 104.012 6.06997 100.079 6.06997C96.8164 6.06997 95.7313 7.44719 95.1603 10.2963L89.935 9.34906C90.763 4.22639 93.9682 1.47925 100.543 1.47925C107.117 1.47925 110.579 4.17539 110.579 10.9886V23.6094C110.579 25.0887 110.836 25.7226 112.185 25.7226ZM102.306 17.4302C99.3077 17.4302 94.9604 17.8018 94.9604 21.8169C94.9604 23.7187 95.7884 25.4603 98.9436 25.4603C101.378 25.4603 103.598 24.1924 104.79 22.9245V17.5395C104.276 17.4885 103.655 17.4302 102.306 17.4302Z" fill="black"/>
</g>
<defs>
<clipPath id="clip0_32_1210">
<rect width="114" height="30" fill="white" transform="translate(-0.00146484)"/>
</clipPath>
</defs>
</svg>
